<!DOCTYPE svg PUBLIC "-//W3C//DTD SVG 1.1//EN" "http://www.w3.org/Graphics/SVG/1.1/DTD/svg11.dtd">

<!-- Uploaded to: SVG Repo, www.svgrepo.com, Transformed by: SVG Repo Mixer Tools -->
<svg viewBox="0 0 600 600" version="1.1" id="svg9724" sodipodi:docname="menu2.svg" inkscape:version="1.2.2 (1:1.2.2+202212051550+b0a8486541)" width="64px" height="64px" xmlns:inkscape="http://www.inkscape.org/namespaces/inkscape" xmlns:sodipodi="http://sodipodi.sourceforge.net/DTD/sodipodi-0.dtd" xmlns="http://www.w3.org/2000/svg" xmlns:svg="http://www.w3.org/2000/svg" fill="#FFFFFF" transform="matrix(1, 0, 0, 1, 0, 0)">

<g id="SVGRepo_bgCarrier" stroke-width="0"/>

<g id="SVGRepo_tracerCarrier" stroke-linecap="round" stroke-linejoin="round" stroke="#CCCCCC" stroke-width="10.8"/>

<g id="SVGRepo_iconCarrier"> <defs id="defs9728"/> <sodipodi:namedview id="namedview9726" pagecolor="#ffffff" bordercolor="#666666" borderopacity="1.0" inkscape:showpageshadow="2" inkscape:pageopacity="0.0" inkscape:pagecheckerboard="0" inkscape:deskcolor="#d1d1d1" showgrid="true" inkscape:zoom="0.59480855" inkscape:cx="-54.63943" inkscape:cy="515.29185" inkscape:window-width="1920" inkscape:window-height="1009" inkscape:window-x="0" inkscape:window-y="1080" inkscape:window-maximized="1" inkscape:current-layer="g10449" showguides="true"> <inkscape:grid type="xygrid" id="grid9972" originx="0" originy="0"/> <sodipodi:guide position="-260,300" orientation="0,-1" id="guide383" inkscape:locked="false"/> <sodipodi:guide position="300,520" orientation="1,0" id="guide385" inkscape:locked="false"/> <sodipodi:guide position="240,520" orientation="0,-1" id="guide939" inkscape:locked="false"/> <sodipodi:guide position="220,80" orientation="0,-1" id="guide941" inkscape:locked="false"/> </sodipodi:namedview> <g id="g10449" transform="matrix(0.95173205,0,0,0.95115787,13.901174,12.168794)" style="stroke-width:1.05103"> <g id="path10026" inkscape:transform-center-x="-0.59233046" inkscape:transform-center-y="-20.347403" transform="matrix(1.3807551,0,0,1.2700888,273.60014,263.99768)"/> <g id="g11314" transform="matrix(1.5092301,0,0,1.3955555,36.774048,-9.4503933)" style="stroke-width:50.6951"/> <path style="color:#000000;fill:#FFFFFF;stroke-linecap:round;stroke-linejoin:round;-inkscape-stroke:none;paint-order:stroke fill markers" d="m 100.20313,-12.792969 c -61.17718,0 -114.808599,47.647954 -114.808599,109.326172 v 75.697267 c 0,61.67822 53.631422,109.32812 114.808599,109.32812 h 64.60742 c 61.17717,0 114.80859,-47.6499 114.80859,-109.32812 V 96.533203 c 0,-61.678218 -53.63142,-109.326172 -114.80859,-109.326172 z m 0,84.082031 h 64.60742 c 19.44882,0 30.72656,12.369078 30.72656,25.244141 v 75.697267 c 0,12.87507 -11.27773,25.24609 -30.72656,25.24609 h -64.60742 c -19.448836,0 -30.726568,-12.37102 -30.726568,-25.24609 V 96.533203 c 0,-12.875063 11.277735,-25.244141 30.726568,-25.244141 z" id="rect298"/> <path style="color:#000000;fill:#FFFFFF;stroke-linecap:round;stroke-linejoin:round;-inkscape-stroke:none;paint-order:stroke fill markers" d="m 100.20313,323.66406 c -61.177177,0 -114.808599,47.64991 -114.808599,109.32813 v 75.69726 c 0,61.67822 53.631422,109.32617 114.808599,109.32617 h 64.60742 c 61.17717,0 114.80859,-47.64795 114.80859,-109.32617 v -75.69726 c 0,-61.67822 -53.63142,-109.32813 -114.80859,-109.32813 z m 0,84.08203 h 64.60742 c 19.44883,0 30.72656,12.37103 30.72656,25.2461 v 75.69726 c 0,12.87507 -11.27773,25.24414 -30.72656,25.24414 h -64.60742 c -19.448836,0 -30.726568,-12.36907 -30.726568,-25.24414 v -75.69726 c 0,-12.87507 11.277732,-25.2461 30.726568,-25.2461 z" id="rect298-3"/> <path style="color:#000000;fill:#FFFFFF;stroke-linecap:round;stroke-linejoin:round;-inkscape-stroke:none;paint-order:stroke fill markers" d="m 436.40625,323.66406 c -61.17717,0 -114.80859,47.64991 -114.80859,109.32813 v 75.69726 c 0,61.67822 53.63142,109.32617 114.80859,109.32617 h 64.60937 c 61.17718,0 114.8086,-47.64795 114.8086,-109.32617 v -75.69726 c 0,-61.67822 -53.63142,-109.32813 -114.8086,-109.32813 z m 0,84.08203 h 64.60937 c 19.44883,0 30.72461,12.37103 30.72461,25.2461 v 75.69726 c 0,12.87507 -11.27578,25.24414 -30.72461,25.24414 h -64.60937 c -19.44883,0 -30.72656,-12.36907 -30.72656,-25.24414 v -75.69726 c 0,-12.87507 11.27773,-25.2461 30.72656,-25.2461 z" id="rect298-6"/> <path style="color:#000000;fill:#FFFFFF;stroke-linecap:round;stroke-linejoin:round;-inkscape-stroke:none;paint-order:stroke fill markers" d="m 468.71094,-12.792969 c -80.78689,0 -147.11328,66.380994 -147.11328,147.175779 0,80.79479 66.3264,147.17578 147.11328,147.17578 80.78688,0 147.11328,-66.38099 147.11328,-147.17578 0,-80.79479 -66.3264,-147.175779 -147.11328,-147.175779 z m 0,84.082031 c 35.63232,0 63.02929,27.399051 63.02929,63.093748 0,35.6947 -27.39697,63.09375 -63.02929,63.09375 -35.63233,0 -63.03125,-27.39905 -63.03125,-63.09375 0,-35.694701 27.39893,-63.093748 63.03125,-63.093748 z" id="rect298-6-7"/> </g> </g>

</svg>